<svg xmlns="http://www.w3.org/2000/svg" viewBox="0 0 64 64"><defs><style>.cls-1{isolation:isolate;}.cls-2{fill:#e2e2e2;}.cls-3,.cls-4{fill:none;}.cls-4{stroke:#000;stroke-linecap:round;stroke-linejoin:round;stroke-width:2px;}.cls-5{opacity:0.25;mix-blend-mode:multiply;}.cls-6,.cls-7{mix-blend-mode:overlay;}.cls-7{fill:#fff;}</style></defs><title>Icon Color</title><g class="cls-1"><g id="Layer_1" data-name="Layer 1"><g id="Vector"><path class="cls-2" d="M60.68,45.58s0,0,0,0a2.79,2.79,0,0,1-2.36,1.23H5.7a2.82,2.82,0,0,1-2.41-1.3,11.26,11.26,0,0,1-1.66-5.89,10.84,10.84,0,0,1,.19-2.07,11.2,11.2,0,0,1,11-9.17A11.24,11.24,0,0,1,24.07,17.18a10.69,10.69,0,0,1,2.42.26h0a11.22,11.22,0,0,1,8.4,7.92,11,11,0,0,1,3.1-.44A10.84,10.84,0,0,1,45.6,28,9.5,9.5,0,0,1,47,29.66a11,11,0,0,1,15.26,7.9A12,12,0,0,1,60.68,45.58Z"/><path class="cls-3" d="M25.53,21.16a5.6,5.6,0,0,1,5.16,5.72"/><path class="cls-3" d="M34.25,29.13s6.38-3.47,9.66,3.28"/></g><g id="Line"><path class="cls-4" d="M60.68,45.58s0,0,0,0a2.79,2.79,0,0,1-2.36,1.23H5.7a2.82,2.82,0,0,1-2.41-1.3,11.26,11.26,0,0,1-1.66-5.89,10.84,10.84,0,0,1,.19-2.07,11.2,11.2,0,0,1,11-9.17A11.24,11.24,0,0,1,24.07,17.18a10.69,10.69,0,0,1,2.42.26h0a11.22,11.22,0,0,1,8.4,7.92,11,11,0,0,1,3.1-.44A10.84,10.84,0,0,1,45.6,28,9.5,9.5,0,0,1,47,29.66a11,11,0,0,1,15.26,7.9A12,12,0,0,1,60.68,45.58Z"/><path class="cls-4" d="M25.53,21.16a5.6,5.6,0,0,1,5.16,5.72"/><path class="cls-4" d="M34.25,29.13s6.38-3.47,9.66,3.28"/></g><g id="Shadow" class="cls-5"><path d="M8.29,45.52a11.26,11.26,0,0,1-1.66-5.89,10.84,10.84,0,0,1,.19-2.07,11.2,11.2,0,0,1,11-9.17,11.24,11.24,0,0,1,8.71-10.92l-.06,0h0a10.69,10.69,0,0,0-2.42-.26A11.24,11.24,0,0,0,12.84,28.39a11.2,11.2,0,0,0-11,9.17,10.84,10.84,0,0,0-.19,2.07,11.26,11.26,0,0,0,1.66,5.89,2.82,2.82,0,0,0,2.41,1.3h5A2.82,2.82,0,0,1,8.29,45.52Z"/></g><g id="Highligth" class="cls-6"><path class="cls-7" d="M51.5,28.69A10.85,10.85,0,0,0,49,29a10.92,10.92,0,0,1,8.26,8.57,12,12,0,0,1-1.57,8s0,0,0,0a2.79,2.79,0,0,1-2.36,1.23h5a2.79,2.79,0,0,0,2.36-1.23s0,0,0,0a12,12,0,0,0,1.57-8A10.94,10.94,0,0,0,51.5,28.69Z"/></g></g></g></svg>