<svg xmlns="http://www.w3.org/2000/svg" viewBox="0 0 64 64"><defs><style>.cls-1{isolation:isolate;}.cls-2{fill:#898989;}.cls-3,.cls-5{fill:none;}.cls-4{fill:#ff9700;}.cls-5{stroke:#000;stroke-linecap:round;stroke-linejoin:round;stroke-width:2px;}.cls-6{opacity:0.25;mix-blend-mode:multiply;}.cls-7,.cls-8{mix-blend-mode:overlay;}.cls-8{fill:#fff;}</style></defs><title>Icon Color</title><g class="cls-1"><g id="Layer_1" data-name="Layer 1"><g id="Vector"><path class="cls-2" d="M60.9,36.81h0a2.8,2.8,0,0,1-2.37,1.24h-34l4.22-5.22h-8l-4.22,5.22H5.5a2.87,2.87,0,0,1-2.44-1.32,11.49,11.49,0,0,1-1.67-5.92,11,11,0,0,1,.2-2.09A11.29,11.29,0,0,1,12.7,19.49,11.33,11.33,0,0,1,24,8.18a10.86,10.86,0,0,1,2.44.27v0a11.31,11.31,0,0,1,8.47,8A11,11,0,0,1,38,16a10.93,10.93,0,0,1,7.67,3.13,10,10,0,0,1,1.4,1.64,11,11,0,0,1,15.38,8A12.08,12.08,0,0,1,60.9,36.81Z"/><path class="cls-3" d="M25.48,12.19A5.65,5.65,0,0,1,30.68,18"/><path class="cls-3" d="M34.27,20.23s6.43-3.5,9.74,3.31"/><polygon class="cls-4" points="30.82 42.52 27.58 44.82 25.74 46.13 12.08 55.82 19.92 46.13 10.03 46.13 12.95 42.52 16.57 38.06 20.79 32.84 28.76 32.84 24.54 38.06 20.92 42.52 30.82 42.52"/><polygon class="cls-4" points="53.97 42.52 50.74 44.82 48.89 46.13 35.25 55.82 43.09 46.13 33.19 46.13 36.1 42.52 39.72 38.06 47.69 38.06 44.08 42.52 53.97 42.52"/></g><g id="Line"><path class="cls-5" d="M60.9,36.81h0a2.8,2.8,0,0,1-2.37,1.24h-34l4.22-5.22h-8l-4.22,5.22H5.5a2.87,2.87,0,0,1-2.44-1.32,11.49,11.49,0,0,1-1.67-5.92,11,11,0,0,1,.2-2.09A11.29,11.29,0,0,1,12.7,19.49,11.33,11.33,0,0,1,24,8.18a10.86,10.86,0,0,1,2.44.27v0a11.31,11.31,0,0,1,8.47,8A11,11,0,0,1,38,16a10.93,10.93,0,0,1,7.67,3.13,10,10,0,0,1,1.4,1.64,11,11,0,0,1,15.38,8A12.08,12.08,0,0,1,60.9,36.81Z"/><path class="cls-5" d="M25.48,12.19A5.65,5.65,0,0,1,30.68,18"/><path class="cls-5" d="M34.27,20.23s6.43-3.5,9.74,3.31"/><polygon class="cls-5" points="30.82 42.52 27.58 44.82 25.74 46.13 12.08 55.82 19.92 46.13 10.03 46.13 12.95 42.52 16.57 38.06 20.79 32.84 28.76 32.84 24.54 38.06 20.92 42.52 30.82 42.52"/><polygon class="cls-5" points="53.97 42.52 50.74 44.82 48.89 46.13 35.25 55.82 43.09 46.13 33.19 46.13 36.1 42.52 39.72 38.06 47.69 38.06 44.08 42.52 53.97 42.52"/></g><g id="Shadow" class="cls-6"><polygon points="12.08 55.82 23.82 47.49 24.92 46.13 19.92 46.13 12.08 55.82"/><path d="M15,46.13,18,42.53l7-9.69H20.79L13,42.53,10,46.13Z"/><path d="M5.5,38.06h5a2.87,2.87,0,0,1-2.44-1.32,11.49,11.49,0,0,1-1.67-5.92,11,11,0,0,1,.2-2.09A11.29,11.29,0,0,1,17.7,19.49a11.29,11.29,0,0,1,8.79-11h0v0A10.86,10.86,0,0,0,24,8.18,11.33,11.33,0,0,0,12.7,19.49,11.29,11.29,0,0,0,1.59,28.73a11,11,0,0,0-.2,2.09,11.49,11.49,0,0,0,1.67,5.92A2.87,2.87,0,0,0,5.5,38.06Z"/></g><g id="Highligth" class="cls-7"><polygon class="cls-8" points="53.97 42.52 48.97 42.52 45.74 44.82 43.89 46.13 42 47.47 35.25 55.82 48.89 46.13 50.74 44.82 53.97 42.52"/><polygon class="cls-8" points="39.08 42.52 44.08 42.52 47.69 38.06 42.69 38.06 39.08 42.52"/><path class="cls-8" d="M57.49,28.73a12.08,12.08,0,0,1-1.59,8.08h0a2.8,2.8,0,0,1-2.37,1.24h5a2.8,2.8,0,0,0,2.37-1.24h0a12.08,12.08,0,0,0,1.59-8.08,11,11,0,0,0-10.85-8.95,10.74,10.74,0,0,0-2.49.3A11,11,0,0,1,57.49,28.73Z"/></g></g></g></svg>