<svg xmlns="http://www.w3.org/2000/svg" viewBox="0 0 64 64"><defs><style>.cls-1{isolation:isolate;}.cls-2{fill:#cecece;}.cls-3,.cls-5{fill:none;}.cls-4{fill:#0095e8;}.cls-5{stroke:#000;stroke-linecap:round;stroke-linejoin:round;stroke-width:2px;}.cls-6{opacity:0.25;mix-blend-mode:multiply;}.cls-7,.cls-8{mix-blend-mode:overlay;}.cls-8{fill:#fff;}</style></defs><title>Icon Color</title><g class="cls-1"><g id="Layer_1" data-name="Layer 1"><g id="Vector"><path class="cls-2" d="M60.68,32.69s0,0,0,0a2.78,2.78,0,0,1-2.36,1.24H5.7a2.83,2.83,0,0,1-2.41-1.31,11.26,11.26,0,0,1-1.66-5.89,10.74,10.74,0,0,1,.19-2.06,11.2,11.2,0,0,1,11-9.18A11.24,11.24,0,0,1,24.07,4.29a11.29,11.29,0,0,1,2.42.26h0a11.22,11.22,0,0,1,8.4,7.92A11,11,0,0,1,38,12a10.84,10.84,0,0,1,7.61,3.1A10.32,10.32,0,0,1,47,16.77a11,11,0,0,1,15.26,7.91A12,12,0,0,1,60.68,32.69Z"/><path class="cls-3" d="M25.53,8.27A5.6,5.6,0,0,1,30.69,14"/><path class="cls-3" d="M34.25,16.24s6.38-3.47,9.66,3.28"/><path class="cls-4" d="M19.47,56.89a3.29,3.29,0,0,1-3.71,2.76,3.29,3.29,0,0,1-2.18-4.07c.42-1.89,4.24-5.19,4.24-5.19S19.89,55,19.47,56.89Z"/><path class="cls-4" d="M22.48,45.23A3.28,3.28,0,0,1,18.78,48a3.29,3.29,0,0,1-2.18-4.08c.42-1.88,4.24-5.19,4.24-5.19S22.9,43.34,22.48,45.23Z"/><path class="cls-4" d="M33.89,56.89a3.29,3.29,0,0,1-3.7,2.76A3.28,3.28,0,0,1,28,55.58c.42-1.89,4.24-5.19,4.24-5.19S34.31,55,33.89,56.89Z"/><path class="cls-4" d="M36.91,45.23A3.29,3.29,0,0,1,33.21,48,3.29,3.29,0,0,1,31,43.92c.42-1.88,4.25-5.19,4.25-5.19S37.33,43.34,36.91,45.23Z"/><path class="cls-4" d="M47.44,56.89a3.29,3.29,0,0,1-3.7,2.76,3.28,3.28,0,0,1-2.18-4.07c.42-1.89,4.24-5.19,4.24-5.19S47.86,55,47.44,56.89Z"/><path class="cls-4" d="M50.46,45.23A3.29,3.29,0,0,1,46.76,48a3.3,3.3,0,0,1-2.19-4.08c.42-1.88,4.25-5.19,4.25-5.19S50.88,43.34,50.46,45.23Z"/></g><g id="Line"><path class="cls-5" d="M60.68,32.69s0,0,0,0a2.78,2.78,0,0,1-2.36,1.24H5.7a2.83,2.83,0,0,1-2.41-1.31,11.26,11.26,0,0,1-1.66-5.89,10.74,10.74,0,0,1,.19-2.06,11.2,11.2,0,0,1,11-9.18A11.24,11.24,0,0,1,24.07,4.29a11.29,11.29,0,0,1,2.42.26h0a11.22,11.22,0,0,1,8.4,7.92A11,11,0,0,1,38,12a10.84,10.84,0,0,1,7.61,3.1A10.32,10.32,0,0,1,47,16.77a11,11,0,0,1,15.26,7.91A12,12,0,0,1,60.68,32.69Z"/><path class="cls-5" d="M25.53,8.27A5.6,5.6,0,0,1,30.69,14"/><path class="cls-5" d="M34.25,16.24s6.38-3.47,9.66,3.28"/><path class="cls-5" d="M19.47,56.89a3.29,3.29,0,0,1-3.71,2.76,3.29,3.29,0,0,1-2.18-4.07c.42-1.89,4.24-5.19,4.24-5.19S19.89,55,19.47,56.89Z"/><path class="cls-5" d="M22.48,45.23A3.28,3.28,0,0,1,18.78,48a3.29,3.29,0,0,1-2.18-4.08c.42-1.88,4.24-5.19,4.24-5.19S22.9,43.34,22.48,45.23Z"/><path class="cls-5" d="M33.89,56.89a3.29,3.29,0,0,1-3.7,2.76A3.28,3.28,0,0,1,28,55.58c.42-1.89,4.24-5.19,4.24-5.19S34.31,55,33.89,56.89Z"/><path class="cls-5" d="M36.91,45.23A3.29,3.29,0,0,1,33.21,48,3.29,3.29,0,0,1,31,43.92c.42-1.88,4.25-5.19,4.25-5.19S37.33,43.34,36.91,45.23Z"/><path class="cls-5" d="M47.44,56.89a3.29,3.29,0,0,1-3.7,2.76,3.28,3.28,0,0,1-2.18-4.07c.42-1.89,4.24-5.19,4.24-5.19S47.86,55,47.44,56.89Z"/><path class="cls-5" d="M50.46,45.23A3.29,3.29,0,0,1,46.76,48a3.3,3.3,0,0,1-2.19-4.08c.42-1.88,4.25-5.19,4.25-5.19S50.88,43.34,50.46,45.23Z"/></g><g id="Shadow" class="cls-6"><path d="M19.71,39.78c-1.16,1.13-2.84,2.92-3.11,4.14A3.29,3.29,0,0,0,18.78,48a2.43,2.43,0,0,0,.93,0Z"/><path d="M16.29,51.84c-1.12,1.12-2.47,2.66-2.71,3.74a3.29,3.29,0,0,0,2.18,4.07,2.38,2.38,0,0,0,.53.05Z"/><path d="M5.7,33.94h5a2.83,2.83,0,0,1-2.41-1.31,11.26,11.26,0,0,1-1.66-5.89,10.74,10.74,0,0,1,.19-2.06,11.2,11.2,0,0,1,11-9.18A11.24,11.24,0,0,1,26.55,4.58l-.06,0h0a11.29,11.29,0,0,0-2.42-.26A11.24,11.24,0,0,0,12.84,15.5a11.2,11.2,0,0,0-11,9.18,10.74,10.74,0,0,0-.19,2.06,11.26,11.26,0,0,0,1.66,5.89A2.83,2.83,0,0,0,5.7,33.94Z"/></g><g id="Highligth" class="cls-7"><path class="cls-8" d="M45.8,50.39s-.89.77-1.86,1.78h1.17v7.41a3.58,3.58,0,0,0,2.33-2.69C47.86,55,45.8,50.39,45.8,50.39Z"/><path class="cls-8" d="M48.82,38.73s-.34.29-.82.75V48a3.57,3.57,0,0,0,2.46-2.74C50.88,43.34,48.82,38.73,48.82,38.73Z"/><path class="cls-8" d="M51.5,15.8a10.85,10.85,0,0,0-2.51.3,10.92,10.92,0,0,1,8.26,8.58,12,12,0,0,1-1.57,8s0,0,0,0a2.78,2.78,0,0,1-2.36,1.24h5a2.78,2.78,0,0,0,2.36-1.24s0,0,0,0a12,12,0,0,0,1.57-8A10.94,10.94,0,0,0,51.5,15.8Z"/></g></g></g></svg>