<svg xmlns="http://www.w3.org/2000/svg" viewBox="0 0 64 64"><defs><style>.cls-1{isolation:isolate;}.cls-2{fill:#0095e8;}.cls-3{fill:#cecece;}.cls-4,.cls-5,.cls-6{fill:none;}.cls-5,.cls-6{stroke:#000;stroke-linecap:round;stroke-linejoin:round;}.cls-6{stroke-width:2px;}.cls-7{opacity:0.25;mix-blend-mode:multiply;}.cls-8,.cls-9{mix-blend-mode:overlay;}.cls-9{fill:#fff;}</style></defs><title>Icon Color</title><g class="cls-1"><g id="Layer_1" data-name="Layer 1"><g id="Vector"><path class="cls-2" d="M21.76,45.89l-.5-.24.1-.07a.86.86,0,0,0,.23-1.19.86.86,0,0,0-1.19-.23l-.53.35-.4.28-1.42-.7,1.31-.89.43.21.67.33h0a.86.86,0,0,0,.74-1.53h0L21,42.09l.46-.31a.86.86,0,0,0,.23-1.19.86.86,0,0,0-1.19-.23l-.46.31v-.12a.86.86,0,0,0-.92-.79.84.84,0,0,0-.79.91l0,.63,0,.48-1.32.9L17,41.09l.4-.27L18,40.4h0A.86.86,0,0,0,17,39h0l-.19.14,0-.56a.86.86,0,0,0-.92-.79.85.85,0,0,0-.79.92l0,.55L15,39.19a.86.86,0,1,0-.75,1.54l.57.27.43.21.12,1.59L14,42.11l0-.48-.05-.75h0a.87.87,0,0,0-.9-.68.85.85,0,0,0-.79.8h0l0,.23L11.66,41a.85.85,0,1,0-.74,1.54l.5.25-.1.06a.86.86,0,1,0,1,1.42l.52-.35.4-.27,1.43.69-1.32.89L12.88,45l-.67-.32h0a.86.86,0,0,0-.74,1.53h0l.22.1-.47.32a.86.86,0,0,0,1,1.41l.46-.31v.12a.85.85,0,0,0,.91.8.87.87,0,0,0,.8-.92l0-.63,0-.48,1.32-.89.12,1.58-.4.27-.62.42h0a.87.87,0,0,0-.14,1.12.86.86,0,0,0,1.09.28h0l.2-.13,0,.55a.86.86,0,1,0,1.71-.12l0-.56.11.06a.86.86,0,0,0,.74-1.55l-.56-.27-.44-.21-.11-1.58,1.43.69,0,.48.06.74h0a.84.84,0,0,0,.89.68.86.86,0,0,0,.8-.8h0l0-.24.5.24A.85.85,0,0,0,22.15,47,.86.86,0,0,0,21.76,45.89Z"/><path class="cls-2" d="M37,56l-.5-.24.1-.07a.86.86,0,0,0,.23-1.19.85.85,0,0,0-1.19-.23l-.53.35-.4.27-1.42-.69,1.31-.89.43.21.67.32h0a.86.86,0,0,0,.74-1.53h0l-.21-.1.46-.31a.86.86,0,0,0,.23-1.19.85.85,0,0,0-1.19-.23l-.46.31v-.12a.86.86,0,1,0-1.71.12l0,.63,0,.48-1.32.89-.11-1.58.4-.27.61-.42h0a.85.85,0,0,0-.95-1.4h0l-.19.14,0-.56a.86.86,0,0,0-.92-.79.84.84,0,0,0-.79.91l0,.56-.11-.06a.87.87,0,0,0-1.15.4.87.87,0,0,0,.4,1.15l.57.27.43.21.12,1.59-1.43-.7,0-.48,0-.74h0a.87.87,0,0,0-.9-.68.85.85,0,0,0-.79.8h0l0,.24-.51-.24a.85.85,0,1,0-.74,1.54l.5.24-.1.07a.85.85,0,0,0-.23,1.19.86.86,0,0,0,1.19.23L28,54l.4-.27,1.43.69-1.32.89-.43-.21-.67-.33h0a.86.86,0,0,0-.74,1.53h0l.22.1-.47.31a.86.86,0,0,0,1,1.42l.46-.31V58a.84.84,0,0,0,.91.79.86.86,0,0,0,.8-.91l-.05-.63,0-.48,1.32-.89.11,1.58-.39.27-.62.42h0a.87.87,0,0,0-.14,1.12.86.86,0,0,0,1.09.28h0l.2-.14,0,.56a.84.84,0,0,0,.91.79.86.86,0,0,0,.8-.92l0-.55.11,0a.85.85,0,1,0,.74-1.54l-.56-.27-.44-.21-.11-1.59,1.43.7,0,.47.06.75h0a.86.86,0,0,0,1.7-.12h0l0-.23.5.24a.84.84,0,0,0,1.14-.4A.85.85,0,0,0,37,56Z"/><path class="cls-2" d="M53.09,46.29l-.51-.24.1-.07a.85.85,0,0,0,.23-1.19.86.86,0,0,0-1.19-.23l-.52.36-.4.27-1.43-.7,1.32-.89.43.21.67.33h0a.86.86,0,0,0,.75-1.53h0l-.21-.11.46-.31A.85.85,0,0,0,53,41a.86.86,0,0,0-1.19-.23l-.46.31V41a.85.85,0,0,0-1.7.12l0,.63,0,.48-1.31.9-.11-1.59.39-.27.62-.42h0a.87.87,0,0,0,.14-1.12.86.86,0,0,0-1.09-.29h0l-.2.13,0-.56a.85.85,0,1,0-1.7.13l0,.55-.12,0a.86.86,0,0,0-.75,1.54l.57.27.44.21.11,1.59-1.43-.69,0-.48-.06-.75h0a.86.86,0,0,0-1.7.12h0v.23L43,41.4a.86.86,0,0,0-.75,1.54l.5.25-.1.06a.88.88,0,0,0-.23,1.2.85.85,0,0,0,1.19.22l.53-.35.39-.27,1.43.69-1.31.89-.43-.21-.67-.32h0a.85.85,0,0,0-1,.43.86.86,0,0,0,.3,1.09h0l.21.1-.46.32a.85.85,0,1,0,1,1.41l.46-.31v.12a.86.86,0,1,0,1.71-.12l0-.63,0-.48,1.32-.89L47,47.74l-.4.27-.61.42h0a.85.85,0,0,0,.95,1.4h0l.19-.13,0,.55a.87.87,0,0,0,.92.8.86.86,0,0,0,.79-.92l0-.56.12.06a.86.86,0,0,0,1.14-.4.84.84,0,0,0-.4-1.14l-.57-.28-.43-.21L48.63,46l1.42.69,0,.48,0,.74h0a.85.85,0,0,0,1.69-.12h0l0-.24.51.25a.86.86,0,0,0,.75-1.55Z"/><path class="cls-3" d="M60.68,31.65s0,0,0,0a2.79,2.79,0,0,1-2.36,1.23H5.7a2.81,2.81,0,0,1-2.41-1.31A11.19,11.19,0,0,1,1.63,25.7a10.84,10.84,0,0,1,.19-2.07,11.2,11.2,0,0,1,11-9.17A11.24,11.24,0,0,1,24.07,3.24a10.69,10.69,0,0,1,2.42.27h0a11.22,11.22,0,0,1,8.4,7.92A11,11,0,0,1,38,11a10.8,10.8,0,0,1,7.61,3.1A9.5,9.5,0,0,1,47,15.73a11,11,0,0,1,15.26,7.9A12,12,0,0,1,60.68,31.65Z"/><path class="cls-4" d="M25.53,7.22A5.61,5.61,0,0,1,30.69,13"/><path class="cls-4" d="M34.25,15.2s6.38-3.47,9.66,3.28"/></g><g id="Line"><path class="cls-5" d="M21.76,45.89l-.5-.24.1-.07a.86.86,0,0,0,.23-1.19.86.86,0,0,0-1.19-.23l-.53.35-.4.28-1.42-.7,1.31-.89.43.21.67.33h0a.86.86,0,0,0,.74-1.53h0L21,42.09l.46-.31a.86.86,0,0,0,.23-1.19.86.86,0,0,0-1.19-.23l-.46.31v-.12a.86.86,0,0,0-.92-.79.84.84,0,0,0-.79.91l0,.63,0,.48-1.32.9L17,41.09l.4-.27L18,40.4h0A.86.86,0,0,0,17,39h0l-.19.14,0-.56a.86.86,0,0,0-.92-.79.85.85,0,0,0-.79.92l0,.55L15,39.19a.86.86,0,1,0-.75,1.54l.57.27.43.21.12,1.59L14,42.11l0-.48-.05-.75h0a.87.87,0,0,0-.9-.68.85.85,0,0,0-.79.8h0l0,.23L11.66,41a.85.85,0,1,0-.74,1.54l.5.25-.1.06a.86.86,0,1,0,1,1.42l.52-.35.4-.27,1.43.69-1.32.89L12.88,45l-.67-.32h0a.86.86,0,0,0-.74,1.53h0l.22.1-.47.32a.86.86,0,0,0,1,1.41l.46-.31v.12a.85.85,0,0,0,.91.8.87.87,0,0,0,.8-.92l0-.63,0-.48,1.32-.89.12,1.58-.4.27-.62.42h0a.87.87,0,0,0-.14,1.12.86.86,0,0,0,1.09.28h0l.2-.13,0,.55a.86.86,0,1,0,1.71-.12l0-.56.11.06a.86.86,0,0,0,.74-1.55l-.56-.27-.44-.21-.11-1.58,1.43.69,0,.48.06.74h0a.84.84,0,0,0,.89.68.86.86,0,0,0,.8-.8h0l0-.24.5.24A.85.85,0,0,0,22.15,47,.86.86,0,0,0,21.76,45.89Z"/><path class="cls-5" d="M37,56l-.5-.24.1-.07a.86.86,0,0,0,.23-1.19.85.85,0,0,0-1.19-.23l-.53.35-.4.27-1.42-.69,1.31-.89.43.21.67.32h0a.86.86,0,0,0,.74-1.53h0l-.21-.1.46-.31a.86.86,0,0,0,.23-1.19.85.85,0,0,0-1.19-.23l-.46.31v-.12a.86.86,0,1,0-1.71.12l0,.63,0,.48-1.32.89-.11-1.58.4-.27.61-.42h0a.85.85,0,0,0-.95-1.4h0l-.19.14,0-.56a.86.86,0,0,0-.92-.79.84.84,0,0,0-.79.91l0,.56-.11-.06a.87.87,0,0,0-1.15.4.87.87,0,0,0,.4,1.15l.57.27.43.21.12,1.59-1.43-.7,0-.48,0-.74h0a.87.87,0,0,0-.9-.68.85.85,0,0,0-.79.8h0l0,.24-.51-.24a.85.85,0,1,0-.74,1.54l.5.24-.1.07a.85.85,0,0,0-.23,1.19.86.86,0,0,0,1.19.23L28,54l.4-.27,1.43.69-1.32.89-.43-.21-.67-.33h0a.86.86,0,0,0-.74,1.53h0l.22.1-.47.31a.86.86,0,0,0,1,1.42l.46-.31V58a.84.84,0,0,0,.91.79.86.86,0,0,0,.8-.91l-.05-.63,0-.48,1.32-.89.11,1.58-.39.27-.62.42h0a.87.87,0,0,0-.14,1.12.86.86,0,0,0,1.09.28h0l.2-.14,0,.56a.84.84,0,0,0,.91.79.86.86,0,0,0,.8-.92l0-.55.11,0a.85.85,0,1,0,.74-1.54l-.56-.27-.44-.21-.11-1.59,1.43.7,0,.47.06.75h0a.86.86,0,0,0,1.7-.12h0l0-.23.5.24a.84.84,0,0,0,1.14-.4A.85.85,0,0,0,37,56Z"/><path class="cls-5" d="M53.09,46.29l-.51-.24.1-.07a.85.85,0,0,0,.23-1.19.86.86,0,0,0-1.19-.23l-.52.36-.4.27-1.43-.7,1.32-.89.43.21.67.33h0a.86.86,0,0,0,.75-1.53h0l-.21-.11.46-.31A.85.85,0,0,0,53,41a.86.86,0,0,0-1.19-.23l-.46.31V41a.85.85,0,0,0-1.7.12l0,.63,0,.48-1.31.9-.11-1.59.39-.27.62-.42h0a.87.87,0,0,0,.14-1.12.86.86,0,0,0-1.09-.29h0l-.2.13,0-.56a.85.85,0,1,0-1.7.13l0,.55-.12,0a.86.86,0,0,0-.75,1.54l.57.27.44.21.11,1.59-1.43-.69,0-.48-.06-.75h0a.86.86,0,0,0-1.7.12h0v.23L43,41.4a.86.86,0,0,0-.75,1.54l.5.25-.1.06a.88.88,0,0,0-.23,1.2.85.85,0,0,0,1.19.22l.53-.35.39-.27,1.43.69-1.31.89-.43-.21-.67-.32h0a.85.85,0,0,0-1,.43.86.86,0,0,0,.3,1.09h0l.21.1-.46.32a.85.85,0,1,0,1,1.41l.46-.31v.12a.86.86,0,1,0,1.71-.12l0-.63,0-.48,1.32-.89L47,47.74l-.4.27-.61.42h0a.85.85,0,0,0,.95,1.4h0l.19-.13,0,.55a.87.87,0,0,0,.92.8.86.86,0,0,0,.79-.92l0-.56.12.06a.86.86,0,0,0,1.14-.4.84.84,0,0,0-.4-1.14l-.57-.28-.43-.21L48.63,46l1.42.69,0,.48,0,.74h0a.85.85,0,0,0,1.69-.12h0l0-.24.51.25a.86.86,0,0,0,.75-1.55Z"/><path class="cls-6" d="M60.68,31.65s0,0,0,0a2.79,2.79,0,0,1-2.36,1.23H5.7a2.81,2.81,0,0,1-2.41-1.31A11.19,11.19,0,0,1,1.63,25.7a10.84,10.84,0,0,1,.19-2.07,11.2,11.2,0,0,1,11-9.17A11.24,11.24,0,0,1,24.07,3.24a10.69,10.69,0,0,1,2.42.27h0a11.22,11.22,0,0,1,8.4,7.92A11,11,0,0,1,38,11a10.8,10.8,0,0,1,7.61,3.1A9.5,9.5,0,0,1,47,15.73a11,11,0,0,1,15.26,7.9A12,12,0,0,1,60.68,31.65Z"/><path class="cls-6" d="M25.53,7.22A5.61,5.61,0,0,1,30.69,13"/><path class="cls-6" d="M34.25,15.2s6.38-3.47,9.66,3.28"/></g><g id="Shadow" class="cls-7"><path d="M8.29,31.58A11.2,11.2,0,0,1,6.62,25.7a10.84,10.84,0,0,1,.2-2.07,11.2,11.2,0,0,1,11-9.17A11.21,11.21,0,0,1,26.55,3.54l-.06,0h0a10.69,10.69,0,0,0-2.42-.27A11.24,11.24,0,0,0,12.84,14.46a11.2,11.2,0,0,0-11,9.17,10.84,10.84,0,0,0-.2,2.07,11.2,11.2,0,0,0,1.67,5.88A2.81,2.81,0,0,0,5.7,32.89h5A2.81,2.81,0,0,1,8.29,31.58Z"/><path d="M45.6,47.05l.38-.26V42.85l-.71-.34,0-.48-.06-.75h0a.86.86,0,0,0-1.7.12h0v.23L43,41.4a.86.86,0,0,0-.75,1.54l.5.25-.1.06a.88.88,0,0,0-.23,1.2.85.85,0,0,0,1.19.22l.53-.35.39-.27,1.43.69-1.31.89-.43-.21-.67-.32h0a.85.85,0,0,0-1,.43.86.86,0,0,0,.3,1.09h0l.21.1-.46.32a.85.85,0,1,0,1,1.41l.46-.31v.12a.86.86,0,1,0,1.71-.12l0-.63Z"/><path d="M29,55.05l-.4.27-.43-.21-.67-.33h0a.86.86,0,0,0-.74,1.53h0l.22.1-.47.31a.86.86,0,0,0,1,1.42l.46-.31V58a.84.84,0,0,0,.91.79.42.42,0,0,0,.15,0Z"/><path d="M26.66,52.87l-.1.07a.85.85,0,0,0-.23,1.19.86.86,0,0,0,1.19.23L28,54l.4-.27L29,54V50.66a.86.86,0,0,0-.76-.37.85.85,0,0,0-.79.8h0l0,.24-.51-.24a.85.85,0,1,0-.74,1.54Z"/><path d="M13.84,44.88l-.53.35L12.88,45l-.67-.32h0a.86.86,0,0,0-.74,1.53h0l.22.1-.47.32a.86.86,0,0,0,1,1.41l.46-.31v.12a.85.85,0,0,0,.91.8.9.9,0,0,0,.28-.08Z"/><path d="M11.42,42.79l-.1.06a.86.86,0,1,0,1,1.42l.52-.35.4-.27.64.31v-3.1A.86.86,0,0,0,13,40.2a.85.85,0,0,0-.79.8h0l0,.23L11.66,41a.85.85,0,1,0-.74,1.54Z"/></g><g id="Highligth" class="cls-8"><path class="cls-9" d="M51.5,14.76a11.42,11.42,0,0,0-2.51.29,11,11,0,0,1,8.26,8.58,12,12,0,0,1-1.57,8s0,0,0,0a2.79,2.79,0,0,1-2.36,1.23h5a2.79,2.79,0,0,0,2.36-1.23s0,0,0,0a12,12,0,0,0,1.57-8A10.93,10.93,0,0,0,51.5,14.76Z"/><path class="cls-9" d="M19.36,43.21h0l.43.21.67.33h0a.86.86,0,0,0,.74-1.53h0L21,42.09l.46-.31a.86.86,0,0,0,.23-1.19.86.86,0,0,0-1.19-.23l-.46.31v-.12a.84.84,0,0,0-.67-.76Z"/><path class="cls-9" d="M21.76,45.89l-.5-.24.1-.07a.86.86,0,0,0,.23-1.19.86.86,0,0,0-1.19-.23l-.53.35-.4.28-.11-.06v3.44a.85.85,0,0,0,1.16-.74h0l0-.24.5.24A.85.85,0,0,0,22.15,47,.86.86,0,0,0,21.76,45.89Z"/><path class="cls-9" d="M37,56l-.5-.24.1-.07a.86.86,0,0,0,.23-1.19.85.85,0,0,0-1.19-.23l-.53.35-.4.27-1.42-.69,1.31-.89.43.21.67.32h0a.86.86,0,0,0,.74-1.53h0l-.21-.1.46-.31a.86.86,0,0,0,.23-1.19.85.85,0,0,0-1.19-.23l-.46.31v-.12a.86.86,0,1,0-1.71.12l0,.63,0,.48-1,.68v3.22l1.33.65,0,.47.06.75h0a.86.86,0,0,0,1.7-.12h0l0-.23.5.24a.84.84,0,0,0,1.14-.4A.85.85,0,0,0,37,56Z"/><path class="cls-9" d="M33.65,57.79l-.56-.27-.44-.21v3.13a.88.88,0,0,0,.2-.61l0-.55.11,0a.85.85,0,1,0,.74-1.54Z"/><path class="cls-9" d="M53.09,46.29l-.51-.24.1-.07a.85.85,0,0,0,.23-1.19.86.86,0,0,0-1.19-.23l-.52.36-.4.27-1.43-.7,1.32-.89.43.21.67.33h0a.86.86,0,0,0,.75-1.53h0l-.21-.11.46-.31A.86.86,0,0,0,53,41a.88.88,0,0,0-1.2-.23l-.46.31V41a.85.85,0,0,0-1.7.12l0,.63,0,.48-.58.4v3.71l.91.44,0,.48,0,.74h0a.85.85,0,0,0,1.69-.12h0l0-.24.51.25a.86.86,0,0,0,.75-1.55Z"/></g></g></g></svg>