<svg xmlns="http://www.w3.org/2000/svg" viewBox="0 0 64 64"><defs><style>.cls-1{isolation:isolate;}.cls-2{fill:#cecece;}.cls-3{fill:none;stroke:#000;stroke-linecap:round;stroke-linejoin:round;stroke-width:2px;}.cls-4{opacity:0.25;mix-blend-mode:multiply;}.cls-5,.cls-6{mix-blend-mode:overlay;}.cls-6{fill:#fff;}</style></defs><title>Icon Color</title><g class="cls-1"><g id="Layer_1" data-name="Layer 1"><g id="Vector"><path class="cls-2" d="M53.94,56.11c-2.6,0-4.89-.67-6.37-3.06-.5-.81-.63-1.56.11-2.24s1.5-1.29,2.57-.64a12.05,12.05,0,0,1,1.21.8c1.49,1.17,3,1.34,4.49.05,1.17-1,2-2.28,1.36-3.81a4,4,0,0,0-4-2.75c-4.91,0-9.82,0-14.73,0-1.55,0-3-.37-3-2.08s1.35-2.16,2.92-2.15c5.18,0,10.37,0,15.56,0,4.45,0,7.62,3.5,7.58,8.11A7.57,7.57,0,0,1,53.94,56.11Z"/><path class="cls-2" d="M53.94,7.89c-2.6,0-4.89.67-6.37,3.06-.5.81-.63,1.56.11,2.24s1.5,1.29,2.57.64a12.05,12.05,0,0,0,1.21-.8c1.49-1.17,3-1.34,4.49,0,1.17,1,2,2.28,1.36,3.81a4,4,0,0,1-4,2.75c-4.91-.05-9.82,0-14.73,0-1.55,0-3,.37-3,2.08s1.35,2.16,2.92,2.15c5.18,0,10.37,0,15.56,0,4.45,0,7.62-3.5,7.58-8.11A7.57,7.57,0,0,0,53.94,7.89Z"/><rect class="cls-2" x="39.28" y="29.64" width="18.73" height="4.64" rx="1.98"/><path class="cls-2" d="M10.06,56.11c2.6,0,4.89-.67,6.37-3.06.5-.81.63-1.56-.11-2.24s-1.5-1.29-2.57-.64a12.05,12.05,0,0,0-1.21.8c-1.49,1.17-3,1.34-4.49.05-1.17-1-2-2.28-1.36-3.81a4,4,0,0,1,4-2.75c4.91,0,9.82,0,14.73,0,1.55,0,3-.37,3-2.08S27,40.25,25.46,40.26c-5.18,0-10.37,0-15.56,0-4.45,0-7.62,3.5-7.58,8.11A7.57,7.57,0,0,0,10.06,56.11Z"/><path class="cls-2" d="M10.06,7.89c2.6,0,4.89.67,6.37,3.06.5.81.63,1.56-.11,2.24s-1.5,1.29-2.57.64a12.05,12.05,0,0,1-1.21-.8c-1.49-1.17-3-1.34-4.49,0-1.17,1-2,2.28-1.36,3.81a4,4,0,0,0,4,2.75c4.91-.05,9.82,0,14.73,0,1.55,0,3,.37,3,2.08S27,23.75,25.46,23.74c-5.18,0-10.37,0-15.56,0-4.45,0-7.62-3.5-7.58-8.11A7.57,7.57,0,0,1,10.06,7.89Z"/><rect class="cls-2" x="5.98" y="29.64" width="18.73" height="4.64" rx="1.98" transform="translate(30.7 63.92) rotate(-180)"/></g><g id="Line"><path class="cls-3" d="M53.94,56.11c-2.6,0-4.89-.67-6.37-3.06-.5-.81-.63-1.56.11-2.24s1.5-1.29,2.57-.64a12.05,12.05,0,0,1,1.21.8c1.49,1.17,3,1.34,4.49.05,1.17-1,2-2.28,1.36-3.81a4,4,0,0,0-4-2.75c-4.91,0-9.82,0-14.73,0-1.55,0-3-.37-3-2.08s1.35-2.16,2.92-2.15c5.18,0,10.37,0,15.56,0,4.45,0,7.62,3.5,7.58,8.11A7.57,7.57,0,0,1,53.94,56.11Z"/><path class="cls-3" d="M53.94,7.89c-2.6,0-4.89.67-6.37,3.06-.5.81-.63,1.56.11,2.24s1.5,1.29,2.57.64a12.05,12.05,0,0,0,1.21-.8c1.49-1.17,3-1.34,4.49,0,1.17,1,2,2.28,1.36,3.81a4,4,0,0,1-4,2.75c-4.91-.05-9.82,0-14.73,0-1.55,0-3,.37-3,2.08s1.35,2.16,2.92,2.15c5.18,0,10.37,0,15.56,0,4.45,0,7.62-3.5,7.58-8.11A7.57,7.57,0,0,0,53.94,7.89Z"/><rect class="cls-3" x="39.28" y="29.64" width="18.73" height="4.64" rx="1.98"/><path class="cls-3" d="M10.06,56.11c2.6,0,4.89-.67,6.37-3.06.5-.81.63-1.56-.11-2.24s-1.5-1.29-2.57-.64a12.05,12.05,0,0,0-1.21.8c-1.49,1.17-3,1.34-4.49.05-1.17-1-2-2.28-1.36-3.81a4,4,0,0,1,4-2.75c4.91,0,9.82,0,14.73,0,1.55,0,3-.37,3-2.08S27,40.25,25.46,40.26c-5.18,0-10.37,0-15.56,0-4.45,0-7.62,3.5-7.58,8.11A7.57,7.57,0,0,0,10.06,56.11Z"/><path class="cls-3" d="M10.06,7.89c2.6,0,4.89.67,6.37,3.06.5.81.63,1.56-.11,2.24s-1.5,1.29-2.57.64a12.05,12.05,0,0,1-1.21-.8c-1.49-1.17-3-1.34-4.49,0-1.17,1-2,2.28-1.36,3.81a4,4,0,0,0,4,2.75c4.91-.05,9.82,0,14.73,0,1.55,0,3,.37,3,2.08S27,23.75,25.46,23.74c-5.18,0-10.37,0-15.56,0-4.45,0-7.62-3.5-7.58-8.11A7.57,7.57,0,0,1,10.06,7.89Z"/><rect class="cls-3" x="5.98" y="29.64" width="18.73" height="4.64" rx="1.98" transform="translate(30.7 63.92) rotate(-180)"/></g><g id="Shadow" class="cls-4"><path d="M8,34.28h5a2,2,0,0,1-2-2v-.67a2,2,0,0,1,2-2H8a2,2,0,0,0-2,2v.67A2,2,0,0,0,8,34.28Z"/><path d="M25.57,19.52h-.18c-3.31,0-6.63,0-9.94,0h.21C19,19.5,22.27,19.51,25.57,19.52Z"/><path d="M2.32,15.6c0,4.61,3.13,8.07,7.58,8.11,5.19.06,10.38,0,15.56,0h.11c-3.56,0-7.11,0-10.67,0a7.41,7.41,0,0,1-7.17-5.3,5.07,5.07,0,0,1-1-1.62,3,3,0,0,1,1-3.44,7.4,7.4,0,0,1,5.1-5.13,10.6,10.6,0,0,0-2.69-.33A7.57,7.57,0,0,0,2.32,15.6Z"/><path d="M13.75,50.17c-.32.2-.64.4-.95.62a2.73,2.73,0,0,0,.25.23,3,3,0,0,0,3.72.45,1.59,1.59,0,0,0-.45-.66C15.61,50.15,14.82,49.52,13.75,50.17Z"/><path d="M15.66,44.46h-.21c3.31,0,6.63,0,9.94,0h.18C22.27,44.49,19,44.5,15.66,44.46Z"/><path d="M7.65,50.65a3,3,0,0,1-1-3.44,5.07,5.07,0,0,1,1-1.62,7.41,7.41,0,0,1,7.17-5.3c3.56,0,7.11,0,10.67,0h-.11c-5.18,0-10.37,0-15.56,0-4.45,0-7.62,3.5-7.58,8.11a7.57,7.57,0,0,0,7.74,7.71,10.6,10.6,0,0,0,2.69-.33A7.4,7.4,0,0,1,7.65,50.65Z"/></g><g id="Highligth" class="cls-5"><path class="cls-6" d="M24.72,32.29v-.67a2,2,0,0,0-2-2h-5a2,2,0,0,1,2,2v.67a2,2,0,0,1-2,2h5A2,2,0,0,0,24.72,32.29Z"/><path class="cls-6" d="M51,34.28h5a2,2,0,0,0,2-2v-.67a2,2,0,0,0-2-2H51a2,2,0,0,1,2,2v.67A2,2,0,0,1,51,34.28Z"/><path class="cls-6" d="M38.43,19.52c3.3,0,6.61,0,9.91,0h.21c-3.31,0-6.63,0-9.94,0Z"/><path class="cls-6" d="M48.34,44.46c-3.3,0-6.61,0-9.91,0h.18c3.31,0,6.63,0,9.94,0Z"/><path class="cls-6" d="M25.39,19.51H20.57c1.48,0,2.79.43,2.81,2.07s-1.29,2.14-2.81,2.15h4.89c1.57,0,2.94-.45,2.92-2.15S26.94,19.5,25.39,19.51Z"/><path class="cls-6" d="M25.46,40.26c-1.63,0-3.26,0-4.89,0,1.52,0,2.83.49,2.81,2.15s-1.33,2.05-2.81,2.07h4.82c1.55,0,3-.37,3-2.08S27,40.25,25.46,40.26Z"/><path class="cls-6" d="M50.25,50.17c-1.07-.65-1.86,0-2.57.64a1.59,1.59,0,0,0-.45.66A3,3,0,0,0,51,51a2.73,2.73,0,0,0,.25-.23C50.89,50.57,50.57,50.37,50.25,50.17Z"/><path class="cls-6" d="M16.32,50.81c-.71-.66-1.5-1.29-2.57-.64a12.05,12.05,0,0,0-1.21.8,5.59,5.59,0,0,1-.77.5,1.91,1.91,0,0,1-.34,1.58,6.22,6.22,0,0,1-1.56,1.72,4.5,4.5,0,0,1-.18,1.31c.13,0,.24,0,.37,0,2.6,0,4.89-.67,6.37-3.06C16.93,52.24,17.06,51.49,16.32,50.81Z"/><path class="cls-6" d="M54.1,40.29c-5.19-.06-10.38,0-15.56,0h-.11c3.56,0,7.11,0,10.67,0a7.41,7.41,0,0,1,7.17,5.3,5.07,5.07,0,0,1,1,1.62,3,3,0,0,1-1,3.44,7.4,7.4,0,0,1-5.1,5.13,10.6,10.6,0,0,0,2.69.33,7.57,7.57,0,0,0,7.74-7.71C61.72,43.79,58.55,40.33,54.1,40.29Z"/><path class="cls-6" d="M53.94,7.89a10.6,10.6,0,0,0-2.69.33,7.4,7.4,0,0,1,5.1,5.13,3,3,0,0,1,1,3.44,5.07,5.07,0,0,1-1,1.62,7.41,7.41,0,0,1-7.17,5.3c-3.56,0-7.11,0-10.67,0h.11c5.18,0,10.37,0,15.56,0,4.45,0,7.62-3.5,7.58-8.11A7.57,7.57,0,0,0,53.94,7.89Z"/></g></g></g></svg>